# xmcd
#
# Track frame offsets: 
#        150
#        25461
#        40079
#        56905
#        67802
#        84801
#        96261
#        112614
#        130791
#        140224
#        156394
#        173966
#        191767
#        216536
#        233058
#        249436
#
# Disc length: 3567 seconds
#
# Revision: 0
# Processed by: cddbd v1.5.2PL0 Copyright (c) Steve Scherf et al.
# Submitted via: ExactAudioCopy v0.99pb4
#
DISCID=e00ded10
DTITLE=Various Artist - The Very Best of Rare Groove - Volumes 15 and 16
DYEAR=1900
DGENRE=Rare Groove
TTITLE0=Johnny Taylor -  Shoot for the Stars
TTITLE1=The Persuaders - Thin Line Between Love and Hate
TTITLE2=Jeanie Tracy - I'll Stand By
TTITLE3=Rose Royce - I'm Going Down
TTITLE4=Masqara - Feel So At Home
TTITLE5=Bennie Johnson - I've Got to Know
TTITLE6=Zingara - You Sure Know How to Love Me
TTITLE7=Dee Edwards - It Comes to My Attention
TTITLE8=Valerie Simpson - Silly, Wasn't I
TTITLE9=Ronnie McNeir - Everybody's In a Hurry
TTITLE10=The Whispers - Small Talking
TTITLE11=Sister Sledge - Thinking of You
TTITLE12=Donald Byrd - Sunning in Your Loveshine
TTITLE13=The Spinners - Ghetto Child
TTITLE14=The Independents - Baby I've Been Missing You
TTITLE15=The Savanah Band - Hard Times
EXTD=
EXTT0=
EXTT1=
EXTT2=
EXTT3=
EXTT4=
EXTT5=
EXTT6=
EXTT7=
EXTT8=
EXTT9=
EXTT10=
EXTT11=
EXTT12=
EXTT13=
EXTT14=
EXTT15=
PLAYORDER=
